<?xml version="1.0" standalone="no"?>
<!DOCTYPE svg PUBLIC "-//W3C//DTD SVG 20010904//EN"
 "http://www.w3.org/TR/2001/REC-SVG-20010904/DTD/svg10.dtd">
<svg version="1.0" xmlns="http://www.w3.org/2000/svg"
 width="452.000000pt" height="452.000000pt" viewBox="0 0 452.000000 452.000000"
 preserveAspectRatio="xMidYMid meet">

<g transform="translate(0.000000,452.000000) scale(0.100000,-0.100000)"
fill="#000000" stroke="none">
<path d="M700 4142 c-162 -42 -286 -170 -325 -333 -13 -56 -15 -259 -15 -1549
0 -1622 -2 -1553 57 -1663 35 -63 117 -145 180 -180 110 -59 41 -57 1663 -57
1622 0 1553 -2 1663 57 63 35 145 117 180 180 59 110 57 41 57 1663 0 1622 2
1553 -57 1663 -35 63 -117 145 -180 180 -110 59 -40 57 -1668 56 -1369 0
-1495 -2 -1555 -17z m3111 -184 c54 -24 115 -83 141 -136 l23 -47 0 -1515 c0
-1388 -1 -1518 -17 -1551 -24 -54 -83 -115 -136 -141 l-47 -23 -1515 0 -1515
0 -47 23 c-53 26 -112 87 -136 141 -16 33 -17 165 -20 1521 -2 1029 1 1501 8
1537 19 91 98 175 188 199 37 10 361 12 1542 11 1366 -2 1498 -3 1531 -19z"/>
<path d="M1965 2877 c-131 -43 -229 -148 -261 -280 -15 -58 -15 -78 -5 -136
13 -71 52 -150 94 -190 l25 -23 -57 -57 c-37 -35 -70 -81 -92 -126 -32 -67
-34 -75 -34 -180 0 -103 2 -114 32 -175 59 -122 145 -197 274 -240 52 -18 81
-21 159 -18 85 3 104 8 173 40 125 60 209 158 241 283 42 158 -3 308 -125 425
l-49 47 31 29 c41 39 79 121 88 189 22 164 -63 317 -218 392 -45 22 -73 27
-146 30 -56 2 -105 -2 -130 -10z m211 -192 c32 -16 59 -39 77 -67 25 -38 28
-50 25 -109 -3 -54 -9 -73 -31 -103 -50 -65 -140 -97 -218 -76 -141 38 -197
181 -117 300 53 78 169 102 264 55z m29 -572 c121 -63 177 -207 124 -323 -44
-98 -123 -150 -235 -158 -61 -4 -80 -1 -126 20 -209 96 -211 365 -3 465 42 20
61 23 125 20 50 -2 88 -11 115 -24z"/>
<path d="M3136 2879 c-68 -17 -155 -71 -210 -130 -60 -64 -99 -150 -116 -251
-16 -99 -13 -599 5 -681 30 -142 122 -259 254 -325 73 -36 78 -37 185 -37 104
0 115 2 179 32 241 114 339 400 221 641 -121 247 -430 334 -644 182 l-30 -21
0 63 c0 183 69 317 177 347 49 14 147 14 196 0 80 -22 150 -119 166 -228 l6
-46 90 0 90 0 -4 45 c-13 168 -112 314 -258 383 -58 27 -79 31 -167 33 -56 2
-118 -1 -140 -7z m221 -695 c51 -20 119 -90 143 -145 43 -101 23 -236 -45
-317 -165 -192 -469 -67 -469 193 0 206 189 343 371 269z"/>
<path d="M730 2075 c0 -3 52 -70 117 -148 64 -78 120 -147 124 -153 5 -6 -39
-69 -112 -160 -67 -82 -123 -152 -126 -156 -2 -5 43 -8 100 -8 l105 0 73 90
c84 104 71 105 166 -16 l58 -74 104 0 c81 0 101 3 94 13 -6 6 -63 77 -127 155
-114 142 -116 144 -99 166 10 12 63 78 119 146 55 69 104 131 108 138 5 9 -16
12 -97 12 l-103 0 -72 -90 c-40 -49 -76 -90 -80 -89 -4 0 -38 40 -77 89 l-70
89 -102 0 c-57 1 -103 -1 -103 -4z"/>
<path d="M2100 1248 c-117 -59 -120 -202 -7 -257 23 -11 83 -30 132 -42 66
-17 97 -30 118 -50 84 -84 -48 -183 -184 -138 -45 15 -76 45 -91 86 -10 28
-17 33 -45 33 -29 0 -33 -3 -33 -25 0 -28 23 -79 49 -109 66 -75 251 -86 339
-20 44 34 62 73 62 135 0 46 -4 55 -38 89 -29 29 -56 43 -112 60 -179 51 -184
54 -199 84 -28 59 25 109 117 110 73 0 116 -22 133 -69 12 -32 17 -35 51 -35
37 0 38 1 32 28 -24 97 -90 142 -212 142 -50 0 -79 -6 -112 -22z"/>
<path d="M1637 1253 c-3 -5 -51 -127 -107 -273 -56 -146 -104 -271 -107 -278
-4 -10 5 -13 37 -10 l43 3 30 83 30 82 121 0 121 0 31 -82 31 -83 46 -3 46 -3
-65 158 c-36 87 -89 215 -117 286 l-52 127 -42 0 c-23 0 -44 -3 -46 -7z m94
-198 l47 -125 -94 0 c-52 0 -94 2 -94 4 0 2 18 51 40 110 22 58 40 113 40 121
0 38 19 5 61 -110z"/>
<path d="M2540 975 l0 -285 35 0 35 0 0 237 c0 130 3 233 8 229 4 -4 41 -109
83 -234 l76 -227 35 -3 35 -3 60 173 c33 95 69 198 79 228 l19 55 3 -227 2
-228 40 0 40 0 0 285 0 285 -54 0 -53 0 -78 -227 c-42 -126 -80 -231 -84 -235
-4 -4 -42 98 -84 227 l-79 235 -59 0 -59 0 0 -285z"/>
</g>
</svg>
